<svg width="390" height="101" viewBox="0 0 390 101" fill="none" xmlns="http://www.w3.org/2000/svg">
<path d="M20.7 99L0.9 49H18L33.9 99H20.7ZM37.4 99H25.3L40.4 49H57.2L37.4 99ZM61.7359 99V48.7C66.7359 49.9 71.7359 49.9 76.7359 48.7V99H61.7359ZM69.2359 43C66.3026 43 64.1026 42.3 62.6359 40.9C61.1693 39.4333 60.4359 37.5333 60.4359 35.2C60.4359 32.9333 61.1693 31.1 62.6359 29.7C64.1026 28.2333 66.3026 27.5 69.2359 27.5C72.1026 27.5 74.2693 28.2333 75.7359 29.7C77.2693 31.1 78.0359 32.9333 78.0359 35.2C78.0359 37.5333 77.2693 39.4333 75.7359 40.9C74.2693 42.3 72.1026 43 69.2359 43ZM117.82 98.1C116.22 98.7 114.486 99.2 112.62 99.6C110.753 100 108.82 100.2 106.82 100.2C101.553 100.2 97.5529 98.7 94.8195 95.7C92.0862 92.7 90.7195 88.5 90.7195 83.1V62.3H88.6195C86.8195 62.3 85.2529 61.7667 83.9195 60.7C82.6529 59.5667 82.0195 57.9667 82.0195 55.9C82.0195 54.1 82.5195 52.6 83.5195 51.4C84.5195 50.1333 85.9862 49.0667 87.9195 48.2L105.72 39.6V49H119.82V62.3H105.72V80.4C105.72 82.8667 106.253 84.6 107.32 85.6C108.386 86.6 109.886 87.1 111.82 87.1C112.82 87.1 113.82 87 114.82 86.8C115.82 86.6 116.82 86.3333 117.82 86V98.1ZM172.242 99H157.042C156.576 98.0667 156.209 96.7 155.942 94.9C155.742 93.1 155.642 91 155.642 88.6L155.142 85.7V65.5C155.142 63.4333 154.476 62 153.142 61.2C151.876 60.4 150.109 60 147.842 60C145.509 60 143.576 60.3 142.042 60.9C140.509 61.4333 139.176 62.1 138.042 62.9C136.909 63.6333 135.809 64.2667 134.742 64.8C133.742 65.3333 132.542 65.6 131.142 65.6C129.209 65.6 127.676 65.1 126.542 64.1C125.409 63.0333 124.842 61.6 124.842 59.8C124.842 58.5333 125.142 57.3333 125.742 56.2C126.342 55 127.376 53.9 128.842 52.9C133.042 49.5 139.342 47.8 147.742 47.8C152.676 47.8 156.809 48.4333 160.142 49.7C163.476 50.9667 165.976 53.0667 167.642 56C169.309 58.8667 170.142 62.7333 170.142 67.6V82.7C170.142 86.3667 170.342 89.5667 170.742 92.3C171.142 94.9667 171.642 97.2 172.242 99ZM139.542 100.2C134.542 100.2 130.609 98.8667 127.742 96.2C124.876 93.5333 123.442 90 123.442 85.6C123.442 81.4667 124.776 78.2333 127.442 75.9C130.109 73.5 134.042 71.9 139.242 71.1L149.442 69.5C151.709 69.1 153.209 68.6333 153.942 68.1C154.742 67.5667 155.142 66.7333 155.142 65.6V75.5C154.742 75.8333 154.209 76.1667 153.542 76.5C152.942 76.7667 151.942 77.0667 150.542 77.4L145.442 78.4C143.642 78.7333 142.176 79.3333 141.042 80.2C139.976 81 139.442 82.2667 139.442 84C139.442 85.7333 139.976 87.1 141.042 88.1C142.176 89.0333 143.676 89.5 145.542 89.5C147.342 89.5 148.942 89.0667 150.342 88.2C151.809 87.3333 152.976 86.1 153.842 84.5C154.709 82.9 155.142 81.0667 155.142 79L156.942 88.4C155.476 92.3333 153.209 95.3 150.142 97.3C147.076 99.2333 143.542 100.2 139.542 100.2ZM194.048 27V81.1C194.048 83.3 194.348 84.8333 194.948 85.7C195.615 86.5 196.715 86.9 198.248 86.9C198.848 86.9 199.448 86.8333 200.048 86.7C200.715 86.5667 201.348 86.4333 201.948 86.3V98.2C199.215 99.5333 196.215 100.2 192.948 100.2C187.882 100.2 184.282 98.7667 182.148 95.9C180.082 92.9667 179.048 89 179.048 84V27H194.048Z" fill="#27272A"/>
<path d="M232.976 52.192C231.707 52.192 230.715 51.84 230 51.136C229.296 50.4213 228.944 49.4453 228.944 48.208L231.344 48.352C231.344 48.896 231.493 49.3333 231.792 49.664C232.101 49.9947 232.496 50.16 232.976 50.16C233.499 50.16 233.915 49.968 234.224 49.584C234.544 49.1893 234.704 48.6667 234.704 48.016C234.704 47.5893 234.629 47.2213 234.48 46.912C234.341 46.6027 234.139 46.3627 233.872 46.192C233.605 46.0213 233.296 45.936 232.944 45.936C232.475 45.936 232.091 46.096 231.792 46.416C231.493 46.7253 231.344 47.1413 231.344 47.664L231.008 45.824C231.253 45.1733 231.616 44.6773 232.096 44.336C232.587 43.984 233.157 43.808 233.808 43.808C234.459 43.808 235.04 43.9733 235.552 44.304C236.075 44.6347 236.485 45.1093 236.784 45.728C237.093 46.336 237.248 47.056 237.248 47.888C237.248 48.7307 237.083 49.4773 236.752 50.128C236.421 50.768 235.936 51.2747 235.296 51.648C234.667 52.0107 233.893 52.192 232.976 52.192ZM231.344 49.024L228.944 48.208V40.48H231.344V49.024ZM242.088 52.192C240.819 52.192 239.864 51.8773 239.224 51.248C238.584 50.608 238.264 49.6853 238.264 48.48V44H240.664V48.464C240.664 48.9973 240.787 49.3973 241.032 49.664C241.288 49.92 241.64 50.048 242.088 50.048C242.558 50.048 242.915 49.92 243.16 49.664C243.406 49.3973 243.528 48.9973 243.528 48.464V44H245.928V48.48C245.928 49.6853 245.608 50.608 244.968 51.248C244.328 51.8773 243.368 52.192 242.088 52.192ZM247.358 52V43.952C248.158 44.144 248.958 44.144 249.758 43.952V52H247.358ZM248.558 43.04C248.089 43.04 247.737 42.928 247.502 42.704C247.268 42.4693 247.15 42.1653 247.15 41.792C247.15 41.4293 247.268 41.136 247.502 40.912C247.737 40.6773 248.089 40.56 248.558 40.56C249.017 40.56 249.364 40.6773 249.598 40.912C249.844 41.136 249.966 41.4293 249.966 41.792C249.966 42.1653 249.844 42.4693 249.598 42.704C249.364 42.928 249.017 43.04 248.558 43.04ZM253.708 40.48V49.136C253.708 49.488 253.756 49.7333 253.852 49.872C253.958 50 254.134 50.064 254.38 50.064C254.476 50.064 254.572 50.0533 254.668 50.032C254.774 50.0107 254.876 49.9893 254.972 49.968V51.872C254.534 52.0853 254.054 52.192 253.532 52.192C252.721 52.192 252.145 51.9627 251.804 51.504C251.473 51.0347 251.308 50.4 251.308 49.6V40.48H253.708ZM260.531 51.856C260.275 51.952 259.998 52.032 259.699 52.096C259.4 52.16 259.091 52.192 258.771 52.192C257.928 52.192 257.288 51.952 256.851 51.472C256.414 50.992 256.195 50.32 256.195 49.456V46.128H255.859C255.571 46.128 255.32 46.0427 255.107 45.872C254.904 45.6907 254.803 45.4347 254.803 45.104C254.803 44.816 254.883 44.576 255.043 44.384C255.203 44.1813 255.438 44.0107 255.747 43.872L258.595 42.496V44H260.851V46.128H258.595V49.024C258.595 49.4187 258.68 49.696 258.851 49.856C259.022 50.016 259.262 50.096 259.571 50.096C259.731 50.096 259.891 50.08 260.051 50.048C260.211 50.016 260.371 49.9733 260.531 49.92V51.856ZM266.453 52V43.28C266.453 42.5973 266.587 42.0373 266.853 41.6C267.12 41.152 267.483 40.8213 267.941 40.608C268.4 40.3947 268.907 40.288 269.461 40.288C270.059 40.288 270.517 40.4 270.837 40.624C271.157 40.848 271.317 41.168 271.317 41.584C271.317 41.872 271.237 42.1013 271.077 42.272C270.928 42.4427 270.731 42.528 270.485 42.528C270.368 42.528 270.235 42.5067 270.085 42.464C269.936 42.4213 269.787 42.4 269.637 42.4C269.424 42.4 269.237 42.4747 269.077 42.624C268.928 42.7733 268.853 43.024 268.853 43.376V52H266.453ZM266.149 46.128C265.861 46.128 265.605 46.0427 265.381 45.872C265.168 45.6907 265.061 45.4187 265.061 45.056C265.061 44.704 265.168 44.4427 265.381 44.272C265.605 44.0907 265.861 44 266.149 44H271.109V46.128H266.149ZM271.314 48.048C271.314 47.1947 271.484 46.4533 271.826 45.824C272.178 45.184 272.674 44.688 273.314 44.336C273.954 43.984 274.722 43.808 275.618 43.808C276.471 43.808 277.212 43.9787 277.842 44.32C278.482 44.6507 278.978 45.1253 279.33 45.744C279.692 46.3627 279.874 47.0987 279.874 47.952C279.874 48.7947 279.698 49.536 279.346 50.176C279.004 50.816 278.514 51.312 277.874 51.664C277.234 52.016 276.471 52.192 275.586 52.192C274.732 52.192 273.986 52.0267 273.346 51.696C272.706 51.3547 272.204 50.8747 271.842 50.256C271.49 49.6373 271.314 48.9013 271.314 48.048ZM273.842 48.032C273.842 48.4693 273.916 48.8427 274.066 49.152C274.215 49.4613 274.418 49.7013 274.674 49.872C274.94 50.032 275.239 50.112 275.57 50.112C275.9 50.112 276.199 50.0267 276.466 49.856C276.743 49.6853 276.956 49.44 277.106 49.12C277.266 48.8 277.346 48.416 277.346 47.968C277.346 47.5307 277.271 47.1573 277.122 46.848C276.972 46.5387 276.764 46.304 276.498 46.144C276.242 45.9733 275.948 45.888 275.618 45.888C275.276 45.888 274.972 45.9733 274.706 46.144C274.439 46.3147 274.226 46.56 274.066 46.88C273.916 47.2 273.842 47.584 273.842 48.032ZM280.914 52V44H283.314V52H280.914ZM283.314 48.4L283.058 45.824C283.25 45.184 283.533 44.688 283.906 44.336C284.279 43.984 284.711 43.808 285.202 43.808C285.458 43.808 285.693 43.8613 285.906 43.968C286.13 44.0747 286.306 44.2347 286.434 44.448C286.573 44.6613 286.642 44.9387 286.642 45.28C286.642 45.7387 286.53 46.0747 286.306 46.288C286.082 46.5013 285.81 46.608 285.49 46.608C285.287 46.608 285.106 46.5813 284.946 46.528C284.797 46.464 284.637 46.432 284.466 46.432C284.114 46.432 283.831 46.6027 283.618 46.944C283.415 47.2853 283.314 47.7707 283.314 48.4Z" fill="url(#paint0_linear_34_204)"/>
<g clip-path="url(#clip0_34_204)">
<path fill-rule="evenodd" clip-rule="evenodd" d="M241.888 73.0442C241.212 69.0397 237.609 66.3953 233.78 67.0753C231.003 67.6042 228.826 69.8708 228.225 72.5908C228.225 72.6664 228.15 72.8175 228.15 72.893C228.15 72.9686 228.15 73.1197 228.075 73.1953C228.075 73.1953 228.075 73.1953 228.075 73.2708C228.075 73.3464 228.075 73.4975 228 73.573C228 73.6486 228 73.7997 228 73.8753C228 73.9508 228 74.1019 228 74.253V74.3286V74.4042C228 74.4797 228 74.5553 228 74.5553C228 74.933 228.075 75.2353 228.075 75.613C228.45 77.8797 230.552 79.3908 232.654 79.013C233.405 78.8619 234.156 78.4842 234.681 77.9553C235.132 77.5019 235.807 77.4264 236.333 77.653C237.008 77.9553 237.834 78.0308 238.585 77.8797C240.687 77.5019 242.038 75.4619 241.813 73.2708C241.888 73.2708 241.888 73.1197 241.888 73.0442ZM258.553 68.0575C250.896 68.0575 246.167 70.7775 246.167 75.1597C246.167 80.2975 251.046 87.2486 258.553 87.2486C265.985 87.2486 270.94 80.2219 270.94 75.1597C270.94 70.7019 266.361 68.0575 258.553 68.0575ZM289.107 74.0264V73.9508C289.107 73.8753 289.107 73.7242 289.107 73.6486C289.107 73.573 289.107 73.4219 289.107 73.3464V73.2708C289.107 73.0442 289.032 72.8175 288.956 72.6664C288.281 69.9464 286.179 67.7553 283.401 67.2264C279.573 66.3953 275.969 69.1153 275.294 73.0442C275.294 73.1197 275.294 73.1953 275.294 73.3464C275.069 75.5375 276.495 77.5775 278.522 77.9553C279.272 78.1064 280.023 77.9553 280.774 77.7286C281.374 77.5019 282.05 77.5775 282.425 78.0308C282.951 78.5597 283.627 78.9375 284.452 79.0886C286.629 79.4664 288.656 77.9553 289.032 75.6886C289.107 75.3108 289.107 75.0086 289.107 74.6308C289.107 74.5553 289.107 74.5553 289.107 74.4797V74.4042V74.3286C289.107 74.1775 289.107 74.1019 289.107 74.0264ZM269.589 91.253C267.562 90.3464 264.859 91.8575 262.607 92.2353C261.256 92.4619 259.905 92.613 258.628 92.613C257.277 92.613 255.926 92.4619 254.65 92.2353C252.398 91.8575 249.695 90.2708 247.668 91.253C246.617 91.7064 246.317 92.8397 246.767 94.1997C247.068 95.1064 247.593 96.013 248.269 96.693C249.695 98.1286 251.572 99.1864 253.298 99.9419C255.025 100.622 256.827 101 258.703 101C260.505 101 262.307 100.622 264.108 99.9419C265.835 99.2619 267.637 98.1286 269.138 96.693C269.814 96.013 270.414 95.1819 270.639 94.1997C270.865 92.8397 270.564 91.7064 269.589 91.253ZM381.592 76.1419C378.589 76.1419 376.262 77.2753 374.536 79.7686V77.5775C374.536 77.0486 374.16 76.6708 373.635 76.6708H367.629C367.104 76.6708 366.728 77.1242 366.728 77.5775V99.4886C366.728 100.017 367.179 100.395 367.629 100.395H373.635C374.16 100.395 374.536 100.017 374.536 99.4886V87.6264C374.536 84.9064 375.512 82.4886 378.289 82.4886C381.142 82.4886 382.043 85.2842 382.043 87.6264V99.5642C382.043 100.093 382.493 100.471 382.943 100.471H388.949C389.475 100.471 389.85 100.093 389.85 99.5642V87.173C390 81.9597 388.499 76.1419 381.592 76.1419ZM335.124 94.7286H333.848C332.872 94.7286 332.422 93.973 332.422 92.9153V68.6619C332.422 68.133 332.046 67.7553 331.521 67.7553H325.665C325.14 67.7553 324.765 68.133 324.765 68.6619V92.5375C324.765 99.3375 329.119 100.924 333.247 100.924C333.848 100.924 334.373 100.924 335.199 100.849C335.65 100.773 336.025 100.395 336.025 99.9419V95.7108C336.025 95.1819 335.65 94.7286 335.124 94.7286ZM350.063 94.8042C346.76 94.8042 344.658 92.0086 344.658 88.533C344.658 85.2086 346.61 82.413 349.988 82.413C353.291 82.413 355.543 84.9064 355.543 88.7597C355.543 92.5375 353.216 94.8042 350.063 94.8042ZM362.299 76.6708H356.294C355.768 76.6708 355.393 77.1242 355.393 77.5775V79.8442C353.967 77.653 351.264 76.1419 348.186 76.1419C341.28 76.1419 336.851 81.5819 336.851 88.533C336.851 95.5597 341.43 101 348.261 101C351.564 101 353.892 99.5642 355.393 97.2219V99.5642C355.393 100.093 355.768 100.471 356.294 100.471H362.299C362.825 100.471 363.2 100.093 363.2 99.5642V77.5775C363.2 77.1242 362.825 76.6708 362.299 76.6708ZM308.099 94.8042C304.796 94.8042 302.694 92.0086 302.694 88.533C302.694 85.2086 304.646 82.413 308.024 82.413C311.327 82.413 313.579 84.9064 313.579 88.7597C313.579 92.5375 311.252 94.8042 308.099 94.8042ZM320.335 76.6708H314.33C313.804 76.6708 313.429 77.1242 313.429 77.5775V79.8442C312.003 77.653 309.3 76.1419 306.222 76.1419C299.316 76.1419 294.887 81.5819 294.887 88.533C294.887 95.5597 299.466 101 306.297 101C309.601 101 311.928 99.5642 313.429 97.2219V99.5642C313.429 100.093 313.804 100.471 314.33 100.471H320.335C320.861 100.471 321.236 100.093 321.236 99.5642V77.5775C321.236 77.1242 320.861 76.6708 320.335 76.6708Z" fill="url(#paint1_linear_34_204)"/>
</g>
<defs>
<linearGradient id="paint0_linear_34_204" x1="309.07" y1="60.7024" x2="309.05" y2="36" gradientUnits="userSpaceOnUse">
<stop stop-color="#D8D8FE"/>
<stop offset="0.462278" stop-color="#7E7AFD"/>
<stop offset="1" stop-color="#5E59FC"/>
</linearGradient>
<linearGradient id="paint1_linear_34_204" x1="309" y1="107" x2="308.948" y2="66.9687" gradientUnits="userSpaceOnUse">
<stop stop-color="#D8D8FE"/>
<stop offset="0.462278" stop-color="#7E7AFD"/>
<stop offset="1" stop-color="#5E59FC"/>
</linearGradient>
<clipPath id="clip0_34_204">
<rect width="162" height="34" fill="white" transform="translate(228 67)"/>
</clipPath>
</defs>
</svg>
